<mxfile host="app.diagrams.net" modified="2024-05-16T11:04:12.618Z" agent="Mozilla/5.0 (Macintosh; Intel Mac OS X 10_15_7) AppleWebKit/537.36 (KHTML, like Gecko) Chrome/124.0.0.0 Safari/537.36" version="24.4.2" etag="o_lWanC2q64X-hUIrBOy" type="github">
  <diagram name="Sida-1" id="2B2r-jljFV9eK1VzzXrI">
    <mxGraphModel>
      <root>
        <mxCell id="0" />
        <mxCell id="1" parent="0" />
      </root>
    </mxGraphModel>
  </diagram>
</mxfile>
